<svg width="45" height="46" viewBox="0 0 45 46" fill="none" xmlns="http://www.w3.org/2000/svg">
<path d="M22.2775 3.83337C12.0298 3.83337 3.71289 12.42 3.71289 23C3.71289 33.58 12.0298 42.1667 22.2775 42.1667C32.5251 42.1667 40.842 33.58 40.842 23C40.842 12.42 32.5251 3.83337 22.2775 3.83337ZM22.2775 9.58337C25.3592 9.58337 27.8468 12.1517 27.8468 15.3334C27.8468 18.515 25.3592 21.0834 22.2775 21.0834C19.1957 21.0834 16.7081 18.515 16.7081 15.3334C16.7081 12.1517 19.1957 9.58337 22.2775 9.58337ZM22.2775 36.8C17.6363 36.8 13.5336 34.3467 11.1387 30.6284C11.1944 26.8142 18.5645 24.725 22.2775 24.725C25.9718 24.725 33.3605 26.8142 33.4162 30.6284C31.0214 34.3467 26.9186 36.8 22.2775 36.8Z" fill="white"/>
</svg>
