<svg width="74" height="65" viewBox="0 0 74 65" fill="none" xmlns="http://www.w3.org/2000/svg">
<rect x="1" width="63" height="63" fill="black"/>
<g filter="url(#filter0_d_90_323)">
<path d="M56.428 12.652C56.428 12.652 56.376 12.6 56.324 12.6H53.828C53.776 12.6 53.776 12.652 53.724 12.704L43.48 40.472L42.232 43.852L41.712 45.256L33.34 22.688L32.092 19.308C32.092 19.256 32.04 19.256 32.04 19.256C31.988 19.256 31.936 19.256 31.936 19.308L24.084 40.472L22.836 43.852L22.316 45.256L10.252 12.704C10.252 12.652 10.2 12.6 10.2 12.6H7.652L7.6 12.652C7.548 12.704 7.548 12.704 7.6 12.756L19.092 43.956L20.392 47.336L20.964 48.948C20.964 49 21.016 49 21.068 49H23.564C23.616 49 23.668 49 23.668 48.948L31.988 26.38L38.488 43.956L39.736 47.336L40.36 48.948C40.36 49 40.412 49 40.464 49H42.96C43.012 49 43.012 49 43.064 48.948L56.428 12.756C56.428 12.704 56.428 12.704 56.428 12.652ZM22.316 42.344C22.368 42.344 22.368 42.344 22.42 42.292L23.668 38.964C23.668 38.912 23.668 38.912 23.668 38.912L30.22 21.128L31.988 16.344L32.508 17.748L41.608 42.292C41.608 42.344 41.66 42.344 41.712 42.344C41.712 42.344 41.764 42.344 41.764 42.292L43.064 38.964C43.064 38.912 43.064 38.912 43.064 38.912L52.736 12.756C52.736 12.704 52.736 12.704 52.736 12.652C52.684 12.652 52.684 12.6 52.632 12.6H50.136C50.084 12.6 50.084 12.652 50.032 12.704L41.712 35.272L35.212 17.696L33.34 12.704C33.34 12.652 33.288 12.6 33.288 12.6H30.74C30.688 12.6 30.688 12.652 30.688 12.704L22.316 35.272L13.944 12.704C13.944 12.652 13.944 12.6 13.892 12.6H11.396C11.344 12.6 11.292 12.652 11.292 12.652C11.292 12.704 11.292 12.704 11.292 12.756L22.212 42.292C22.212 42.344 22.264 42.344 22.316 42.344Z" fill="#00FFE0"/>
</g>
<defs>
<filter id="filter0_d_90_323" x="0.547974" y="4.6" width="72.88" height="60.4" filterUnits="userSpaceOnUse" color-interpolation-filters="sRGB">
<feFlood flood-opacity="0" result="BackgroundImageFix"/>
<feColorMatrix in="SourceAlpha" type="matrix" values="0 0 0 0 0 0 0 0 0 0 0 0 0 0 0 0 0 0 127 0" result="hardAlpha"/>
<feOffset dx="5" dy="4"/>
<feGaussianBlur stdDeviation="6"/>
<feComposite in2="hardAlpha" operator="out"/>
<feColorMatrix type="matrix" values="0 0 0 0 0 0 0 0 0 1 0 0 0 0 0.88 0 0 0 1 0"/>
<feBlend mode="normal" in2="BackgroundImageFix" result="effect1_dropShadow_90_323"/>
<feBlend mode="normal" in="SourceGraphic" in2="effect1_dropShadow_90_323" result="shape"/>
</filter>
</defs>
</svg>
